<?xml version="1.0" encoding="UTF-8"?>
<svg id="_图层_1" data-name="图层 1" xmlns="http://www.w3.org/2000/svg" viewBox="0 0 480 480">
  <defs>
    <style>
      .cls-1 {
        fill: #1677fe;
      }

      .cls-2 {
        fill: #22d2ed;
      }

      .cls-3 {
        fill: #fefefe;
      }
    </style>
  </defs>
  <g>
    <circle class="cls-1" cx="240" cy="190" r="110"/>
    <circle class="cls-1" cx="140" cy="300" r="100"/>
    <circle class="cls-1" cx="340" cy="300" r="100"/>
    <rect class="cls-1" x="140" y="300" width="200" height="100"/>
  </g>
  <g>
    <path class="cls-2" d="M195.41,137.47c8.57,3.63,16.33,8.5,23.83,14.66,22.88-4.11,46.26-3.36,68.29,4.05,15.14,5.09,27.75,13.78,38.11,25.66,15.85,18.17,24.12,41.83,30.04,65.03,1.27,4.96,3.62,8.78,7.97,11.62,9.74,6.35,27.11,15.42,23.74,26.98-1.22,4.18-6.33,6.38-10.62,6.58-11.37.54-22.08,1.61-33.41,3.34l-27.87,4.25c-14.9-3.98-29.41-8.94-43.88-15.31-.75,5.11-1.94,8.94-3.14,12.85-3.04,9.85-9.4,17.65-18.27,23.37l-10.92,7.05c-2.4,1.55-5.16.65-6.35-2.11-5.57-11.77-6.54-24.67-2.34-36.74,2.43-6.98,5.85-13.58,10.12-20.16-8.85-3.73-17.48-6.41-26.96-6.8-13.36-.54-25.28,6.62-30.06,19.17-9.49,24.91,4.15,51.85,26.01,65.74,3.97,2.52,7.4,6,12.26,7.67,15.23,5.24,30.04-3.78,44.22-10.31,7.12-3.28,20.47-8.37,21.81-4.93,1.21,3.09-5.78,10.59-10.32,14.87-3.29,3.1-5.65,6.63-6.89,11.07-3.91,13.91-1.86,28.67,6.14,40.66.93,1.39.84,3.3-.16,4.24-3.33.2-5.83-.81-8.56-2.19-13-6.57-24.04-16.13-32.41-28.35-55.4-3.22-103.3-40.04-109.99-96.67-4.09-34.61,7.08-68.73,30.58-94.41-.83-6.85-2.74-12.65-4.98-18.44-3.99-10.31-10.15-19.67-18.12-27.81-2.84-2.9-4.06-6.61-2.19-10.58,1.2-2.55,4.47-5.76,8.54-5.69,19.34.31,38.3,4.26,55.76,11.65ZM311.06,236.91c0-8.77-7.11-15.88-15.88-15.88s-15.88,7.11-15.88,15.88,7.11,15.88,15.88,15.88,15.88-7.11,15.88-15.88Z"/>
    <path class="cls-3" d="M230.61,288.75c-11.9-3.13-20.71,2.47-25.51,13.71-6.22,14.6-4.02,31.26,4.62,44.24-21.86-13.9-35.5-40.84-26.01-65.74,4.78-12.55,16.71-19.71,30.06-19.17,9.48.38,18.11,3.06,26.96,6.8-4.27,6.58-7.69,13.18-10.12,20.16Z"/>
    <path class="cls-3" d="M315.51,299.65c-15.66,2.39-31.44.62-47.03-2.46,1.21-3.91,2.39-7.74,3.14-12.85,14.47,6.37,28.98,11.33,43.88,15.31Z"/>
    <circle class="cls-1" cx="295.18" cy="236.91" r="15.88"/>
  </g>
</svg>
